<svg xmlns="http://www.w3.org/2000/svg" viewBox="0 0 484.79 343.57"><defs><style>.cls-1{fill:#ee4639;}.cls-2{fill:#fff;}</style></defs><title>Asset 5</title><g id="Layer_2" data-name="Layer 2"><g id="Layer_1-2" data-name="Layer 1"><polygon class="cls-1" points="242.4 227.53 0 113.77 242.4 0 484.79 113.77 242.4 227.53"/><polygon class="cls-2" points="242.74 130.72 242.74 161.06 242.74 194.82 174.46 162.77 242.74 130.72"/><path class="cls-2" d="M241.63,163l.14,31.85-.13-18.53c58.4.37,149.28-29.89,149.26-62.52-21.44,21.72-107.61,42.09-149.33,38.94l-.13-18.66Z"/><path class="cls-1" d="M242.4,343.57c-82.76-64.51-148.51-56.9-148.51-56.9l6.49-88.22,142.55,62.39,141.48-62.39,6.49,88.22s-65.75-7.61-148.5,56.9"/><polygon class="cls-2" points="242.44 95.29 242.44 64.95 242.44 31.19 310.73 63.24 242.44 95.29"/><path class="cls-2" d="M243.56,63l-.14-31.85.13,18.53c-58.4-.37-149.67,31.41-149.66,64.05,21.44-21.72,108-43.62,149.73-40.47L243.75,92Z"/></g></g></svg>