<svg xmlns="http://www.w3.org/2000/svg" viewBox="0 0 1350.9 166.46"><defs><style>.cls-1{stroke:#fff;stroke-miterlimit:10;}.cls-2{fill:#f44336;}.cls-3{fill:#ed4638;}.cls-4{fill:#fff;}</style></defs><title>Asset 4</title><g id="Layer_2" data-name="Layer 2"><g id="Layer_1-2" data-name="Layer 1"><path class="cls-1" d="M280.79,181.89,283.6,19.54h30.67L337.32,132,361.37,19.54H391l3,162.35H372L369.58,69.05l-23,112.84H328.7L305.25,68.65,303,181.89Z" transform="translate(0 -17.74)"/><path class="cls-1" d="M432.72,183.7a22.17,22.17,0,0,1-13.43-4.11,27.35,27.35,0,0,1-8.62-10.42,30.26,30.26,0,0,1-3-13.13q0-10.83,4-18.24a38.06,38.06,0,0,1,10.62-12.43,75,75,0,0,1,15-8.72q8.42-3.7,17-6.71v-10a43.24,43.24,0,0,0-.7-8.42,9.65,9.65,0,0,0-2.61-5.21q-1.9-1.82-5.91-1.81a8.88,8.88,0,0,0-5.51,1.6,8.76,8.76,0,0,0-3,4.51,27.58,27.58,0,0,0-1.1,6.72l-.4,7-25.86-1q.6-20,9.92-29.56t28.36-9.52q17.44,0,25.36,9.62t7.92,26.06v53.51c0,4.28.1,8.15.3,11.63s.46,6.61.8,9.42.63,5.28.9,7.41H458.38c-.4-2.67-.91-5.71-1.51-9.12s-1-5.91-1.3-7.51A29.64,29.64,0,0,1,448,178Q442.34,183.7,432.72,183.7Zm10-20.25a9.78,9.78,0,0,0,4.91-1.3,18.68,18.68,0,0,0,4.11-3.11,16.53,16.53,0,0,0,2.61-3.2V123.57q-4.41,2.59-8.32,5.21a38.27,38.27,0,0,0-6.81,5.71,22.4,22.4,0,0,0-4.41,6.71,21.67,21.67,0,0,0-1.51,8.42q0,6.42,2.51,10.12A7.88,7.88,0,0,0,442.74,163.45Z" transform="translate(0 -17.74)"/><path class="cls-1" d="M527.33,183.29q-11,0-17.34-3.6a19.82,19.82,0,0,1-8.92-10.43,45.36,45.36,0,0,1-2.6-16.23V84.08H486.84V66h11.63V31.37h27.45V66h17.64v18H525.92v66.55q0,6,2.61,8.51c1.73,1.68,4.34,2.51,7.82,2.51,1.47,0,2.9-.07,4.31-.2l4.1-.4v20.84q-3.4.41-7.91.9A84.91,84.91,0,0,1,527.33,183.29Z" transform="translate(0 -17.74)"/><path class="cls-1" d="M589.46,183.7q-13,0-21.25-4.91a29.12,29.12,0,0,1-12.12-14.44q-3.92-9.51-3.91-22.95V106.53q0-13.83,3.91-23.25a28.47,28.47,0,0,1,12.22-14.23q8.33-4.81,21.15-4.81,13.83,0,21.54,5.21t11,15.13q3.3,9.93,3.31,24.15v16.44h-46.1V148a32.06,32.06,0,0,0,1.1,9.22,9.16,9.16,0,0,0,3.51,5.21,10.22,10.22,0,0,0,5.81,1.6,9.22,9.22,0,0,0,5.81-1.7,9.64,9.64,0,0,0,3.21-5,29.16,29.16,0,0,0,1-8.32V139.4h25.46v7.82q0,17.64-8.82,27.06T589.46,183.7Zm-10.22-72h20.44v-11a38.29,38.29,0,0,0-1-9.72,9.83,9.83,0,0,0-3.21-5.42,10,10,0,0,0-6.21-1.7,8.87,8.87,0,0,0-5.81,1.8c-1.48,1.21-2.54,3.21-3.21,6a54.88,54.88,0,0,0-1,12Z" transform="translate(0 -17.74)"/><path class="cls-1" d="M638.36,181.89V66h27.26V83.88q6-10.22,12-14.73a21.54,21.54,0,0,1,13.23-4.51,18.47,18.47,0,0,1,2.1.1c.6.07,1.31.17,2.11.3V93.3a36,36,0,0,0-5.31-1.7,25,25,0,0,0-5.92-.7A19,19,0,0,0,674,93.5a27.32,27.32,0,0,0-8.42,8.62v79.77Z" transform="translate(0 -17.74)"/><path class="cls-1" d="M703.3,47.6V25h27.26V47.6Zm0,134.29V66h27.26V181.89Z" transform="translate(0 -17.74)"/><path class="cls-1" d="M768.64,183.7a22.17,22.17,0,0,1-13.43-4.11,27.35,27.35,0,0,1-8.62-10.42,30.26,30.26,0,0,1-3-13.13q0-10.83,4-18.24a38.06,38.06,0,0,1,10.62-12.43,75,75,0,0,1,15-8.72q8.43-3.7,17-6.71v-10a43.24,43.24,0,0,0-.7-8.42A9.65,9.65,0,0,0,787,86.29q-1.9-1.82-5.91-1.81a8.14,8.14,0,0,0-8.52,6.11,27.58,27.58,0,0,0-1.1,6.72l-.4,7-25.86-1q.6-20,9.92-29.56t28.36-9.52q17.44,0,25.36,9.62t7.92,26.06v53.51c0,4.28.1,8.15.3,11.63s.46,6.61.8,9.42.63,5.28.9,7.41H794.3q-.6-4-1.51-9.12c-.6-3.4-1-5.91-1.3-7.51A29.52,29.52,0,0,1,783.88,178Q778.26,183.7,768.64,183.7Zm10-20.25a9.83,9.83,0,0,0,4.91-1.3,18.86,18.86,0,0,0,4.1-3.11,16.16,16.16,0,0,0,2.61-3.2V123.57q-4.41,2.59-8.32,5.21a38.63,38.63,0,0,0-6.81,5.71,22.4,22.4,0,0,0-4.41,6.71,21.86,21.86,0,0,0-1.51,8.42q0,6.42,2.51,10.12A7.89,7.89,0,0,0,778.67,163.45Z" transform="translate(0 -17.74)"/><path class="cls-1" d="M832.58,181.89V19.54h27.06V181.89Z" transform="translate(0 -17.74)"/><path class="cls-1" d="M906.74,183.7q-14.62,0-24-7.82T869.26,153l20.24-7.82q2.41,9.43,6.42,14.43a12.69,12.69,0,0,0,10.42,5c3.21,0,5.61-.81,7.22-2.41a8.94,8.94,0,0,0,2.4-6.61,14.23,14.23,0,0,0-2.91-8.72,61.47,61.47,0,0,0-9.92-9.72l-14-11.83a70.94,70.94,0,0,1-12.32-13.53q-4.72-6.91-4.71-17.34a29.17,29.17,0,0,1,4.31-16.13A28.86,28.86,0,0,1,888.2,68a37.21,37.21,0,0,1,16.74-3.71q14,0,22.55,8.32T938.41,94.3l-17.84,7.62a41.63,41.63,0,0,0-2.9-8.92,19.66,19.66,0,0,0-4.92-6.71,10.35,10.35,0,0,0-7-2.61A8.88,8.88,0,0,0,899,86.29a9.13,9.13,0,0,0-2.5,6.61,11.32,11.32,0,0,0,2.91,7,64.65,64.65,0,0,0,8.31,8.21L922,121a105.32,105.32,0,0,1,8.82,8.62,43.73,43.73,0,0,1,7,10.32,29.44,29.44,0,0,1,2.8,13.13q0,10-4.51,16.84a28.43,28.43,0,0,1-12.22,10.32A41,41,0,0,1,906.74,183.7Z" transform="translate(0 -17.74)"/><path class="cls-2" d="M992.13,184.1q-14.64,0-24.46-5.72a35.91,35.91,0,0,1-14.83-16.73q-5-11-5.61-27.06l25.45-5A78.73,78.73,0,0,0,975,146.21c1.27,4.82,3.2,8.52,5.81,11.13a13.93,13.93,0,0,0,10.32,3.91q7.21,0,10.22-4.31a18.63,18.63,0,0,0,3-10.93q0-10.62-4.81-17.43A75,75,0,0,0,986.71,115l-20.44-18a61.36,61.36,0,0,1-13.73-16.54q-5.12-9.12-5.11-22.55,0-19.23,11.22-29.66t30.67-10.42q11.43,0,19,3.5A30.35,30.35,0,0,1,1020.49,31a43.93,43.93,0,0,1,6.71,14.13A83.27,83.27,0,0,1,1030,61.83l-25.26,4.41a86.45,86.45,0,0,0-1.7-13.63,19,19,0,0,0-4.61-9.42q-3.32-3.4-9.72-3.4-6.62,0-10.12,4.3a16.45,16.45,0,0,0-3.51,10.73q0,8.22,3.41,13.53a52.78,52.78,0,0,0,9.82,10.92l20.24,17.84a84,84,0,0,1,17.14,19.74q7.11,11.33,7.11,27.36a41.15,41.15,0,0,1-5.11,20.65A36.67,36.67,0,0,1,1013.47,179,43,43,0,0,1,992.13,184.1Z" transform="translate(0 -17.74)"/><path class="cls-2" d="M1041.23,181.89V19.54h27.26V77.07a47.5,47.5,0,0,1,13.13-9.42,35.5,35.5,0,0,1,15.53-3.41q7,0,11.23,3.51a20.52,20.52,0,0,1,6.21,9.32,38.61,38.61,0,0,1,2,12.62v92.2h-27.26V95.1q0-5.2-1.6-8t-6.21-2.81a15.56,15.56,0,0,0-6.32,1.6,32,32,0,0,0-6.71,4.21v91.8Z" transform="translate(0 -17.74)"/><path class="cls-2" d="M1153.07,183.7a22.17,22.17,0,0,1-13.43-4.11,27.35,27.35,0,0,1-8.62-10.42,30.26,30.26,0,0,1-3-13.13q0-10.83,4-18.24a38.21,38.21,0,0,1,10.63-12.43,75,75,0,0,1,15-8.72q8.41-3.7,17-6.71v-10a43.24,43.24,0,0,0-.7-8.42,9.65,9.65,0,0,0-2.61-5.21q-1.9-1.82-5.91-1.81a8.88,8.88,0,0,0-5.51,1.6,8.76,8.76,0,0,0-3,4.51,27.58,27.58,0,0,0-1.1,6.72l-.4,7-25.86-1q.6-20,9.92-29.56t28.36-9.52q17.44,0,25.36,9.62t7.91,26.06v53.51c0,4.28.1,8.15.31,11.63s.46,6.61.8,9.42.63,5.28.9,7.41h-24.45c-.4-2.67-.91-5.71-1.51-9.12s-1-5.91-1.3-7.51A29.64,29.64,0,0,1,1168.3,178Q1162.69,183.7,1153.07,183.7Zm10-20.25a9.81,9.81,0,0,0,4.91-1.3,18.68,18.68,0,0,0,4.11-3.11,16.53,16.53,0,0,0,2.61-3.2V123.57q-4.41,2.59-8.32,5.21a38.71,38.71,0,0,0-6.82,5.71,22.79,22.79,0,0,0-4.41,6.71,21.86,21.86,0,0,0-1.5,8.42q0,6.42,2.51,10.12A7.88,7.88,0,0,0,1163.09,163.45Z" transform="translate(0 -17.74)"/><path class="cls-2" d="M1215.81,181.89V66h27.26V83.88q6-10.22,12-14.73a21.54,21.54,0,0,1,13.23-4.51,18.47,18.47,0,0,1,2.1.1c.61.07,1.31.17,2.11.3V93.3a35.61,35.61,0,0,0-5.31-1.7,25,25,0,0,0-5.92-.7,19,19,0,0,0-9.82,2.6,27.3,27.3,0,0,0-8.41,8.62v79.77Z" transform="translate(0 -17.74)"/><path class="cls-2" d="M1315,183.7q-13,0-21.25-4.91a29.12,29.12,0,0,1-12.12-14.44q-3.92-9.51-3.91-22.95V106.53q0-13.83,3.91-23.25a28.47,28.47,0,0,1,12.22-14.23q8.33-4.81,21.15-4.81,13.83,0,21.55,5.21a28.41,28.41,0,0,1,11,15.13q3.3,9.93,3.31,24.15v16.44h-46.1V148a32.06,32.06,0,0,0,1.1,9.22,9.16,9.16,0,0,0,3.51,5.21,10.22,10.22,0,0,0,5.81,1.6,9.2,9.2,0,0,0,5.81-1.7,9.64,9.64,0,0,0,3.21-5,29.16,29.16,0,0,0,1-8.32V139.4h25.46v7.82q0,17.64-8.82,27.06T1315,183.7Zm-10.22-72h20.44v-11a38.29,38.29,0,0,0-1-9.72,9.83,9.83,0,0,0-3.21-5.42,10,10,0,0,0-6.21-1.7,8.89,8.89,0,0,0-5.81,1.8c-1.47,1.21-2.54,3.21-3.21,6a54.88,54.88,0,0,0-1,12Z" transform="translate(0 -17.74)"/><polygon class="cls-3" points="112.18 110.87 0 58.22 112.18 5.58 224.35 58.22 112.18 110.87"/><polygon class="cls-4" points="112.34 66.07 112.34 80.11 112.34 95.73 80.74 80.9 112.34 66.07"/><path class="cls-4" d="M111.82,98.73l.07,14.74-.06-8.57c27,.17,69.08-13.83,69.07-28.94C171,86,131.1,95.44,111.79,94l-.05-8.63Z" transform="translate(0 -17.74)"/><path class="cls-3" d="M112.18,182.31C73.88,152.46,43.45,156,43.45,156l3-40.83,66,28.88,65.48-28.88,3,40.83s-30.42-3.52-68.72,26.33" transform="translate(0 -17.74)"/><polygon class="cls-4" points="112.2 49.67 112.2 35.63 112.2 20.01 143.8 34.84 112.2 49.67"/><path class="cls-4" d="M112.72,52.49l-.07-14.74.06,8.57c-27-.17-69.27,14.54-69.26,29.64,9.92-10,50-20.18,69.29-18.72l.06,8.63Z" transform="translate(0 -17.74)"/></g></g></svg>