<svg id="Layer_1" data-name="Layer 1" xmlns="http://www.w3.org/2000/svg" viewBox="0 0 1249.2 167.84"><defs><style>.cls-1{fill:#f44336;}.cls-2{stroke:#fff;stroke-miterlimit:10;}</style></defs><title>MaterialsshareLogo</title><path class="cls-1" d="M363.1,479.4a107.2,107.2,0,0,0-73.37-28.94v89.68a107.2,107.2,0,0,1,73.37,28.94,107.6,107.6,0,0,1,73.38-28.94V450.46A107.23,107.23,0,0,0,363.1,479.4Zm0-28.94A24.46,24.46,0,1,0,338.64,426,24.43,24.43,0,0,0,363.1,450.46Z" transform="translate(-289.73 -401.54)"/><path class="cls-2" d="M468.83,567.08l2.8-162.35H502.3l23.05,112.44,24-112.44h29.66l3,162.35H560l-2.4-112.84-23,112.84H516.73L493.28,453.83l-2.21,113.25Z" transform="translate(-289.73 -401.54)"/><path class="cls-2" d="M620.75,568.88a22.12,22.12,0,0,1-13.42-4.1,27.13,27.13,0,0,1-8.62-10.43,30.1,30.1,0,0,1-3-13.13q0-10.82,4-18.24a38.12,38.12,0,0,1,10.62-12.42,74.5,74.5,0,0,1,15-8.72q8.43-3.7,17-6.72v-10a42.54,42.54,0,0,0-.7-8.42,9.68,9.68,0,0,0-2.61-5.21q-1.9-1.8-5.91-1.8a8.14,8.14,0,0,0-8.52,6.11,27.58,27.58,0,0,0-1.1,6.72l-.4,7-25.86-1q.6-20,9.93-29.56t28.36-9.52q17.43,0,25.35,9.62t7.92,26.05v53.52q0,6.42.3,11.62t.8,9.42q.49,4.22.9,7.42H646.41q-.6-4-1.5-9.12c-.6-3.41-1-5.91-1.31-7.52A29.61,29.61,0,0,1,636,563.17Q630.38,568.89,620.75,568.88Zm10-20.24a9.83,9.83,0,0,0,4.91-1.3,19.49,19.49,0,0,0,4.11-3.11,15.8,15.8,0,0,0,2.6-3.21V508.75q-4.41,2.61-8.32,5.22a38.2,38.2,0,0,0-6.81,5.71,22.4,22.4,0,0,0-4.41,6.71,21.83,21.83,0,0,0-1.5,8.42q0,6.42,2.5,10.12A7.9,7.9,0,0,0,630.78,548.64Z" transform="translate(-289.73 -401.54)"/><path class="cls-2" d="M715.36,568.48q-11,0-17.34-3.6a19.82,19.82,0,0,1-8.92-10.43,45.58,45.58,0,0,1-2.6-16.23v-69H674.87v-18H686.5V416.55H714v34.68H731.6v18H714v66.54q0,6,2.6,8.52c1.74,1.67,4.34,2.51,7.82,2.51,1.47,0,2.91-.07,4.31-.2l4.11-.41v20.85c-2.28.27-4.91.57-7.92.9A87.22,87.22,0,0,1,715.36,568.48Z" transform="translate(-289.73 -401.54)"/><path class="cls-2" d="M777.49,568.88q-13,0-21.24-4.91a29.12,29.12,0,0,1-12.13-14.43q-3.92-9.51-3.91-22.95V491.72q0-13.83,3.91-23.25a28.48,28.48,0,0,1,12.23-14.23q8.31-4.82,21.14-4.81,13.83,0,21.55,5.21a28.41,28.41,0,0,1,11,15.13q3.32,9.92,3.31,24.15v16.44h-46.1v22.85a32.41,32.41,0,0,0,1.1,9.22,9.26,9.26,0,0,0,3.51,5.21,10.22,10.22,0,0,0,5.81,1.6,9.32,9.32,0,0,0,5.82-1.7,9.73,9.73,0,0,0,3.2-5,29.16,29.16,0,0,0,1-8.32v-9.62h25.46v7.81q0,17.65-8.82,27.06T777.49,568.88Zm-10.22-71.95h20.44v-11a38.4,38.4,0,0,0-1-9.72,9.89,9.89,0,0,0-3.2-5.41,10,10,0,0,0-6.22-1.7,8.91,8.91,0,0,0-5.81,1.8c-1.47,1.2-2.54,3.21-3.21,6a55,55,0,0,0-1,12Z" transform="translate(-289.73 -401.54)"/><path class="cls-2" d="M826.4,567.08V451.23h27.26v17.84q6-10.23,12-14.73a21.54,21.54,0,0,1,13.23-4.51,18.66,18.66,0,0,1,2.11.1q.9.1,2.1.3v28.26a35.6,35.6,0,0,0-5.31-1.71,25.54,25.54,0,0,0-5.91-.7,18.88,18.88,0,0,0-9.82,2.61,27.22,27.22,0,0,0-8.42,8.62v79.77Z" transform="translate(-289.73 -401.54)"/><path class="cls-2" d="M891.34,432.79V410.14H918.6v22.65Zm0,134.29V451.23H918.6V567.08Z" transform="translate(-289.73 -401.54)"/><path class="cls-2" d="M956.68,568.88a22.15,22.15,0,0,1-13.43-4.1,27.13,27.13,0,0,1-8.62-10.43,30.1,30.1,0,0,1-3-13.13q0-10.82,4-18.24a38.12,38.12,0,0,1,10.62-12.42,74.31,74.31,0,0,1,15-8.72q8.41-3.7,17-6.72v-10a42.54,42.54,0,0,0-.7-8.42,9.74,9.74,0,0,0-2.6-5.21q-1.92-1.8-5.92-1.8a8.14,8.14,0,0,0-8.52,6.11,27.58,27.58,0,0,0-1.1,6.72l-.4,7-25.85-1q.6-20,9.92-29.56t28.36-9.52q17.43,0,25.35,9.62t7.92,26.05v53.52q0,6.42.3,11.62t.8,9.42c.33,2.81.64,5.28.91,7.42H982.33q-.6-4-1.5-9.12c-.6-3.41-1-5.91-1.3-7.52a29.73,29.73,0,0,1-7.62,12.73Q966.3,568.89,956.68,568.88Zm10-20.24a9.83,9.83,0,0,0,4.91-1.3,19.24,19.24,0,0,0,4.11-3.11,15.8,15.8,0,0,0,2.6-3.21V508.75q-4.41,2.61-8.31,5.22a38.28,38.28,0,0,0-6.82,5.71,22.4,22.4,0,0,0-4.41,6.71,21.83,21.83,0,0,0-1.5,8.42q0,6.42,2.5,10.12A7.9,7.9,0,0,0,966.7,548.64Z" transform="translate(-289.73 -401.54)"/><path class="cls-2" d="M1020.61,567.08V404.73h27.06V567.08Z" transform="translate(-289.73 -401.54)"/><path class="cls-2" d="M1094.77,568.88q-14.62,0-24-7.81t-13.43-22.85l20.25-7.82q2.4,9.42,6.41,14.43a12.73,12.73,0,0,0,10.42,5q4.82,0,7.22-2.4a9,9,0,0,0,2.4-6.62,14.33,14.33,0,0,0-2.9-8.72,63.2,63.2,0,0,0-9.92-9.72l-14-11.82A71.34,71.34,0,0,1,1064.81,497q-4.71-6.91-4.71-17.34a28.07,28.07,0,0,1,16.13-26.56,37.37,37.37,0,0,1,16.74-3.7q14,0,22.55,8.31t10.92,21.75l-17.84,7.62a41.08,41.08,0,0,0-2.9-8.92,19.78,19.78,0,0,0-4.91-6.72,10.44,10.44,0,0,0-7-2.6,8.9,8.9,0,0,0-6.71,2.6,9.18,9.18,0,0,0-2.51,6.62,11.27,11.27,0,0,0,2.91,7,63.52,63.52,0,0,0,8.32,8.22L1110,506.15a106.83,106.83,0,0,1,8.82,8.62,44,44,0,0,1,7,10.32,29.44,29.44,0,0,1,2.81,13.13q0,10-4.51,16.83a28.46,28.46,0,0,1-12.23,10.33A41.07,41.07,0,0,1,1094.77,568.88Z" transform="translate(-289.73 -401.54)"/><path class="cls-1" d="M1180.16,569.29q-14.64,0-24.45-5.72a36,36,0,0,1-14.84-16.73q-5-11-5.61-27.06l25.46-5a78.13,78.13,0,0,0,2.3,16.63q1.9,7.22,5.81,11.13a14,14,0,0,0,10.33,3.91q7.21,0,10.22-4.31a18.72,18.72,0,0,0,3-10.93q0-10.62-4.81-17.44a74.87,74.87,0,0,0-12.82-13.62l-20.45-18a61.51,61.51,0,0,1-13.73-16.54q-5.1-9.12-5.11-22.55,0-19.25,11.23-29.66t30.66-10.43q11.43,0,19,3.51a30.33,30.33,0,0,1,12.13,9.72,43.92,43.92,0,0,1,6.71,14.13A83.37,83.37,0,0,1,1218,447l-25.25,4.41a86.23,86.23,0,0,0-1.71-13.63,18.91,18.91,0,0,0-4.61-9.42q-3.3-3.4-9.72-3.41-6.62,0-10.12,4.31a16.44,16.44,0,0,0-3.51,10.72q0,8.24,3.41,13.53a52.56,52.56,0,0,0,9.82,10.93l20.24,17.84A83.75,83.75,0,0,1,1213.73,502q7.11,11.32,7.12,27.36a41.19,41.19,0,0,1-5.11,20.64,36.56,36.56,0,0,1-14.24,14.13Q1192.38,569.29,1180.16,569.29Z" transform="translate(-289.73 -401.54)"/><path class="cls-1" d="M1229.26,567.08V404.73h27.26v57.52a47.86,47.86,0,0,1,13.13-9.42,35.49,35.49,0,0,1,15.53-3.4q7,0,11.23,3.5a20.63,20.63,0,0,1,6.21,9.32,38.45,38.45,0,0,1,2,12.63v92.2h-27.26V480.29q0-5.21-1.61-8c-1.07-1.86-3.14-2.8-6.21-2.8a15.36,15.36,0,0,0-6.31,1.6,31.61,31.61,0,0,0-6.72,4.21v91.8Z" transform="translate(-289.73 -401.54)"/><path class="cls-1" d="M1341.1,568.88a22.17,22.17,0,0,1-13.43-4.1,27.2,27.2,0,0,1-8.61-10.43,30.1,30.1,0,0,1-3-13.13q0-10.82,4-18.24a38.12,38.12,0,0,1,10.62-12.42,74.5,74.5,0,0,1,15-8.72q8.43-3.7,17-6.72v-10a42.54,42.54,0,0,0-.7-8.42,9.68,9.68,0,0,0-2.61-5.21q-1.9-1.8-5.91-1.8a8.14,8.14,0,0,0-8.52,6.11,27.58,27.58,0,0,0-1.1,6.72l-.4,7-25.86-1q.6-20,9.92-29.56t28.37-9.52q17.43,0,25.35,9.62t7.92,26.05v53.52q0,6.42.3,11.62c.2,3.48.46,6.62.8,9.42s.63,5.28.9,7.42h-24.45q-.6-4-1.5-9.12c-.61-3.41-1-5.91-1.31-7.52a29.61,29.61,0,0,1-7.61,12.73Q1350.72,568.89,1341.1,568.88Zm10-20.24a9.83,9.83,0,0,0,4.91-1.3,19.18,19.18,0,0,0,4.1-3.11,15.9,15.9,0,0,0,2.61-3.21V508.75q-4.41,2.61-8.32,5.22a38.2,38.2,0,0,0-6.81,5.71,22.4,22.4,0,0,0-4.41,6.71,21.83,21.83,0,0,0-1.5,8.42q0,6.42,2.5,10.12A7.89,7.89,0,0,0,1351.13,548.64Z" transform="translate(-289.73 -401.54)"/><path class="cls-1" d="M1403.84,567.08V451.23h27.26v17.84q6-10.23,12-14.73a21.54,21.54,0,0,1,13.23-4.51,18.66,18.66,0,0,1,2.11.1q.9.1,2.1.3v28.26a35.22,35.22,0,0,0-5.31-1.71,25.54,25.54,0,0,0-5.91-.7,18.88,18.88,0,0,0-9.82,2.61,27.32,27.32,0,0,0-8.42,8.62v79.77Z" transform="translate(-289.73 -401.54)"/><path class="cls-1" d="M1503.05,568.88q-13,0-21.24-4.91a29.12,29.12,0,0,1-12.13-14.43q-3.9-9.51-3.91-22.95V491.72q0-13.83,3.91-23.25a28.48,28.48,0,0,1,12.23-14.23q8.31-4.82,21.14-4.81,13.83,0,21.55,5.21a28.41,28.41,0,0,1,11,15.13q3.32,9.92,3.31,24.15v16.44h-46.1v22.85a32.41,32.41,0,0,0,1.1,9.22,9.26,9.26,0,0,0,3.51,5.21,10.22,10.22,0,0,0,5.81,1.6,9.32,9.32,0,0,0,5.82-1.7,9.67,9.67,0,0,0,3.2-5,29.12,29.12,0,0,0,1-8.32v-9.62h25.45v7.81q0,17.65-8.82,27.06T1503.05,568.88Zm-10.22-71.95h20.45v-11a38.34,38.34,0,0,0-1-9.72,9.83,9.83,0,0,0-3.2-5.41,10,10,0,0,0-6.22-1.7,8.91,8.91,0,0,0-5.81,1.8c-1.47,1.2-2.54,3.21-3.21,6a55,55,0,0,0-1,12Z" transform="translate(-289.73 -401.54)"/></svg>